<?xml version="1.0" encoding="utf-8"?>
<!-- Generator: Adobe Illustrator 22.0.1, SVG Export Plug-In . SVG Version: 6.00 Build 0)  -->
<svg version="1.1" id="Layer_1" xmlns="http://www.w3.org/2000/svg" xmlns:xlink="http://www.w3.org/1999/xlink" x="0px" y="0px"
	 viewBox="0 0 419.6 118" style="enable-background:new 0 0 419.6 118;" xml:space="preserve">
<style type="text/css">
	.st0{fill:#674EA7;}
	.st1{fill:#FFFFFF;}
</style>
<g>
	<g>
		<path class="st0" d="M134.2,82.3l8.9-44.4h8.2l-7.5,37.4h23.2l-1.4,7H134.2z"/>
		<path class="st0" d="M186.3,82.8c-3.3,0-6.2-0.6-8.7-1.9c-2.5-1.2-4.4-3-5.7-5.2c-1.4-2.2-2-4.8-2-7.8c0-3.8,0.9-7.2,2.6-10.2
			c1.7-3,4.1-5.3,7.1-7c3-1.7,6.5-2.6,10.4-2.6c3.3,0,6.2,0.6,8.7,1.8c2.5,1.2,4.4,2.9,5.7,5.1c1.4,2.2,2,4.9,2,7.9
			c0,3.8-0.9,7.1-2.6,10.1c-1.7,3-4.1,5.4-7.1,7.1C193.7,81.9,190.2,82.8,186.3,82.8z M186.8,76c2.3,0,4.3-0.5,6-1.6
			c1.7-1.1,3.1-2.6,4.1-4.5c1-1.9,1.5-4.1,1.5-6.6c0-2.6-0.8-4.7-2.3-6.2c-1.6-1.5-3.8-2.3-6.6-2.3c-2.2,0-4.2,0.5-6,1.6
			c-1.8,1.1-3.1,2.6-4.2,4.5c-1,1.9-1.5,4.1-1.5,6.6c0,2.7,0.8,4.7,2.3,6.2C181.8,75.2,184,76,186.8,76z"/>
		<path class="st0" d="M222.6,95.1c-3.2,0-6.2-0.4-8.9-1.2c-2.7-0.8-5-1.9-7-3.5l4.1-6c1.3,1.1,3,2.1,5.2,2.8s4.5,1,7,1
			c3.7,0,6.5-0.8,8.4-2.4c1.9-1.6,3.2-4.1,3.8-7.3l1.4-7l2.1-7.2l1.3-7.7l1.6-8.2h7.5l-5.7,28.7c-1.3,6.3-3.6,10.9-7.1,13.7
			C232.9,93.6,228.3,95.1,222.6,95.1z M224.5,80.8c-2.9,0-5.5-0.6-7.8-1.7c-2.3-1.1-4.1-2.7-5.4-4.8c-1.3-2.1-2-4.6-2-7.5
			c0-2.7,0.5-5.1,1.4-7.4c1-2.3,2.3-4.2,4-5.9c1.7-1.7,3.7-3,6.1-4c2.3-1,4.9-1.4,7.7-1.4c2.5,0,4.7,0.4,6.8,1.3
			c2.1,0.9,3.7,2.3,4.9,4.2c1.2,1.9,1.8,4.4,1.7,7.6c-0.1,3.7-0.8,7.1-2.2,10.1c-1.4,3-3.4,5.3-6,7
			C231.3,79.9,228.2,80.8,224.5,80.8z M226.3,74.1c2.3,0,4.3-0.5,6-1.5c1.7-1,3.1-2.4,4.1-4.1c1-1.8,1.5-3.7,1.5-5.9
			c0-2.4-0.8-4.3-2.3-5.7c-1.6-1.4-3.7-2.1-6.5-2.1c-2.3,0-4.3,0.5-6,1.5c-1.7,1-3.1,2.4-4.1,4.1c-1,1.7-1.5,3.7-1.5,6
			c0,2.4,0.8,4.3,2.4,5.7C221.3,73.4,223.5,74.1,226.3,74.1z"/>
		<path class="st0" d="M252,82.3l8.9-44.4h20.5c4.6,0,8.2,0.8,10.7,2.5c2.5,1.7,3.7,4.2,3.7,7.4c0,2.8-0.7,5.1-2.1,7
			c-1.4,1.9-3.2,3.3-5.5,4.3c-2.2,1-4.6,1.5-7.1,1.5l1.6-2.2c3.3,0,6,0.8,8.1,2.5s3.1,4.1,3.1,7.3c0,3.1-0.8,5.7-2.5,7.7
			s-4,3.6-6.9,4.7c-2.9,1-6.4,1.6-10.2,1.6H252z M261.5,75.8h13.3c3.4,0,6.1-0.6,8-1.9c1.9-1.3,2.9-3.1,2.9-5.6c0-2-0.7-3.4-2.1-4.2
			c-1.4-0.8-3.4-1.2-5.9-1.2h-14.8l1.3-6.4h12.9c2,0,3.8-0.3,5.4-0.8c1.5-0.5,2.7-1.4,3.6-2.5c0.8-1.1,1.2-2.5,1.2-4.1
			c0-1.7-0.7-2.9-2-3.7c-1.3-0.8-3.2-1.2-5.7-1.2h-11.7L261.5,75.8z"/>
		<path class="st0" d="M314.7,82.8c-3.3,0-6.2-0.6-8.7-1.9c-2.5-1.2-4.4-3-5.7-5.2c-1.4-2.2-2-4.8-2-7.8c0-3.8,0.9-7.2,2.6-10.2
			c1.7-3,4.1-5.3,7.1-7s6.5-2.6,10.4-2.6c3.3,0,6.2,0.6,8.7,1.8c2.5,1.2,4.4,2.9,5.7,5.1c1.4,2.2,2,4.9,2,7.9
			c0,3.8-0.9,7.1-2.6,10.1c-1.7,3-4.1,5.4-7.1,7.1C322.1,81.9,318.6,82.8,314.7,82.8z M315.2,76c2.3,0,4.3-0.5,6-1.6
			s3.1-2.6,4.1-4.5s1.5-4.1,1.5-6.6c0-2.6-0.8-4.7-2.3-6.2c-1.6-1.5-3.8-2.3-6.6-2.3c-2.2,0-4.2,0.5-6,1.6c-1.8,1.1-3.1,2.6-4.2,4.5
			c-1,1.9-1.5,4.1-1.5,6.6c0,2.7,0.8,4.7,2.3,6.2C310.2,75.2,312.4,76,315.2,76z"/>
		<path class="st0" d="M354,82.8c-3.3,0-6.2-0.6-8.7-1.9c-2.5-1.2-4.4-3-5.7-5.2c-1.4-2.2-2-4.8-2-7.8c0-3.8,0.9-7.2,2.6-10.2
			c1.7-3,4.1-5.3,7.1-7s6.5-2.6,10.4-2.6c3.3,0,6.2,0.6,8.7,1.8c2.5,1.2,4.4,2.9,5.7,5.1c1.4,2.2,2,4.9,2,7.9
			c0,3.8-0.9,7.1-2.6,10.1c-1.7,3-4.1,5.4-7.1,7.1C361.4,81.9,357.9,82.8,354,82.8z M354.5,76c2.3,0,4.3-0.5,6-1.6s3.1-2.6,4.1-4.5
			s1.5-4.1,1.5-6.6c0-2.6-0.8-4.7-2.3-6.2c-1.6-1.5-3.8-2.3-6.6-2.3c-2.2,0-4.2,0.5-6,1.6c-1.8,1.1-3.1,2.6-4.2,4.5
			c-1,1.9-1.5,4.1-1.5,6.6c0,2.7,0.8,4.7,2.3,6.2C349.5,75.2,351.7,76,354.5,76z"/>
		<path class="st0" d="M376.6,82.3l9.4-47h7.9l-9.4,47H376.6z M384.8,74.5l1.7-9.8l20.4-16.3h10.8l-19,15.3l-4.2,3.1L384.8,74.5z
			 M402.4,82.3L393,67l5.5-6.1l13.2,21.4H402.4z"/>
	</g>
	<g>
		<path class="st1" d="M1.4,54.7c0-0.7,0.1-1.3,0.2-2C1.5,53.3,1.4,54,1.4,54.7z"/>
		<path class="st1" d="M32.7,7.5c0.6-0.3,1.3-0.6,2-0.9C34.1,6.8,33.4,7.1,32.7,7.5z"/>
		<path class="st1" d="M35.6,6.1c0.7-0.3,1.4-0.6,2.2-0.9C37.1,5.5,36.3,5.8,35.6,6.1z"/>
		<path class="st1" d="M17.4,18.8c0.4-0.4,0.7-0.8,1.1-1.1C18.1,18,17.8,18.4,17.4,18.8z"/>
		<path class="st1" d="M38.5,4.9c2-0.7,4-1.4,6-1.9C42.5,3.6,40.5,4.2,38.5,4.9z"/>
		<path class="st1" d="M15.5,20.8c0.3-0.4,0.7-0.8,1.1-1.2C16.2,20,15.9,20.4,15.5,20.8z"/>
		<path class="st1" d="M12,25.2c0.3-0.4,0.6-0.9,0.9-1.3C12.6,24.3,12.3,24.8,12,25.2z"/>
		<path class="st1" d="M13.7,23c0.3-0.4,0.7-0.8,1-1.2C14.4,22.1,14,22.5,13.7,23z"/>
		<path class="st1" d="M58.5,1.3c-1.1,0-2.2,0-3.3,0.1C56.3,1.4,57.4,1.3,58.5,1.3c31.6,0,57.3,25.6,57.3,57.3s-25.6,57.3-57.3,57.3
			c-31.6,0-57.3-25.6-57.3-57.3c0-1,0-2,0.1-3c-0.1,1-0.1,2-0.1,3c0,31.6,25.6,57.3,57.3,57.3s57.3-25.6,57.3-57.3
			S90.2,1.3,58.5,1.3z"/>
		<path class="st1" d="M51.3,69L46,95.5h30.9c5.4,0,10.1-0.7,14.2-2.2c4.1-1.4,7.3-3.6,9.6-6.5c2.3-2.9,3.5-6.5,3.5-10.7
			c0-4.5-1.4-7.8-4.3-10.2c-1.2-1-2.6-1.7-4.1-2.3c0.2-0.1,0.4-0.1,0.5-0.2c3.1-1.3,5.6-3.3,7.6-6c2-2.6,2.9-5.9,2.9-9.8
			c0-4.5-1.7-7.9-5.2-10.3c-3.5-2.3-8.4-3.5-14.9-3.5H58.3l-5.1,25.3H21.9L32.2,7.7c-4.9,2.5-9.4,5.8-13.3,9.5L8.6,69H51.3z
			 M67.9,42.9h16.3c3.4,0,6,0.5,7.9,1.6c1.8,1.1,2.8,2.8,2.8,5.1c0,2.2-0.6,4.1-1.7,5.7c-1.1,1.6-2.8,2.7-4.9,3.4
			c-2.1,0.7-4.6,1.1-7.4,1.1H64.5L67.9,42.9z M62.7,68.8h18.9c3.5,0,6.2,0.5,8.2,1.6c1.9,1.1,2.9,3,2.9,5.8c0,3.4-1.3,6-4,7.7
			c-2.6,1.8-6.3,2.6-11.1,2.6H59.2L62.7,68.8z"/>
		<path class="st1" d="M48.8,2.2c0.7-0.1,1.4-0.2,2.1-0.3C50.2,2,49.5,2.1,48.8,2.2z"/>
		<path class="st1" d="M45.5,2.9c0.7-0.2,1.5-0.3,2.2-0.5C46.9,2.5,46.2,2.7,45.5,2.9z"/>
		<path class="st1" d="M52,1.7c0.7-0.1,1.5-0.1,2.2-0.2C53.5,1.6,52.7,1.6,52,1.7z"/>
		<path class="st1" d="M6.4,34.9c0.2-0.5,0.4-1,0.7-1.4C6.8,33.9,6.6,34.4,6.4,34.9z"/>
		<path class="st1" d="M3.4,42.9c0.1-0.5,0.3-1,0.5-1.6C3.7,41.9,3.6,42.4,3.4,42.9z"/>
		<path class="st1" d="M5.3,37.5c0.2-0.5,0.4-1,0.6-1.5C5.7,36.5,5.5,37,5.3,37.5z"/>
		<path class="st1" d="M4.3,40.2c0.2-0.5,0.3-1,0.5-1.5C4.6,39.2,4.5,39.7,4.3,40.2z"/>
		<path class="st1" d="M10.4,27.5c0.3-0.4,0.6-0.9,0.9-1.3C11,26.6,10.7,27,10.4,27.5z"/>
		<path class="st1" d="M2.7,45.7c0.1-0.5,0.2-1.1,0.4-1.6C3,44.6,2.8,45.2,2.7,45.7z"/>
		<path class="st1" d="M2.1,48.6c0.1-0.6,0.2-1.1,0.3-1.7C2.3,47.5,2.2,48,2.1,48.6z"/>
		<path class="st1" d="M9,29.9c0.3-0.5,0.5-0.9,0.8-1.4C9.5,29,9.2,29.4,9,29.9z"/>
		<path class="st1" d="M1.7,51.6c0.1-0.6,0.1-1.2,0.2-1.8C1.8,50.4,1.8,51,1.7,51.6z"/>
		<path class="st1" d="M7.6,32.3c0.2-0.5,0.5-0.9,0.7-1.4C8.1,31.4,7.9,31.9,7.6,32.3z"/>
		<path class="st0" d="M58.5,115.9c31.6,0,57.3-25.6,57.3-57.3S90.2,1.3,58.5,1.3c-1.1,0-2.2,0-3.3,0.1c-0.3,0-0.7,0.1-1,0.1
			c-0.7,0.1-1.5,0.1-2.2,0.2c-0.4,0-0.8,0.1-1.1,0.1c-0.7,0.1-1.4,0.2-2.1,0.3c-0.4,0.1-0.7,0.1-1.1,0.2c-0.7,0.1-1.5,0.3-2.2,0.5
			c-0.3,0.1-0.6,0.1-0.9,0.2c-2.1,0.5-4.1,1.1-6,1.9C38.3,5,38,5.1,37.8,5.2c-0.7,0.3-1.5,0.6-2.2,0.9c-0.3,0.1-0.6,0.3-0.9,0.4
			c-0.7,0.3-1.3,0.6-2,0.9c-0.2,0.1-0.3,0.2-0.5,0.2l0,0L21.9,59.3h31.3l5.1-25.3h28.4c6.5,0,11.4,1.2,14.9,3.5
			c3.5,2.3,5.2,5.8,5.2,10.3c0,3.9-1,7.1-2.9,9.8c-2,2.6-4.5,4.6-7.6,6c-0.2,0.1-0.4,0.1-0.5,0.2c1.5,0.6,2.9,1.3,4.1,2.3
			c2.9,2.3,4.3,5.7,4.3,10.2c0,4.3-1.2,7.9-3.5,10.7c-2.3,2.9-5.5,5-9.6,6.5c-4.1,1.4-8.8,2.2-14.2,2.2H46L51.3,69H8.6l10.3-51.7
			l0,0c-0.1,0.1-0.3,0.3-0.4,0.4c-0.4,0.4-0.7,0.7-1.1,1.1c-0.3,0.3-0.6,0.6-0.8,0.9c-0.4,0.4-0.7,0.8-1.1,1.2
			c-0.3,0.3-0.5,0.6-0.8,0.9c-0.3,0.4-0.7,0.8-1,1.2c-0.3,0.3-0.5,0.6-0.8,1c-0.3,0.4-0.6,0.8-0.9,1.3c-0.2,0.3-0.5,0.7-0.7,1
			c-0.3,0.4-0.6,0.9-0.9,1.3c-0.2,0.3-0.4,0.7-0.7,1C9.5,29,9.2,29.4,9,29.9c-0.2,0.4-0.4,0.7-0.6,1.1c-0.3,0.5-0.5,0.9-0.7,1.4
			c-0.2,0.4-0.4,0.7-0.6,1.1c-0.2,0.5-0.5,1-0.7,1.4C6.2,35.3,6,35.6,5.9,36c-0.2,0.5-0.4,1-0.6,1.5c-0.2,0.4-0.3,0.8-0.5,1.2
			c-0.2,0.5-0.4,1-0.5,1.5C4.2,40.6,4,41,3.9,41.3c-0.2,0.5-0.3,1-0.5,1.6c-0.1,0.4-0.2,0.8-0.3,1.2c-0.1,0.5-0.3,1.1-0.4,1.6
			c-0.1,0.4-0.2,0.8-0.3,1.2c-0.1,0.6-0.2,1.1-0.3,1.7C2.1,49,2,49.4,1.9,49.8c-0.1,0.6-0.2,1.2-0.2,1.8c0,0.4-0.1,0.7-0.1,1.1
			c-0.1,0.7-0.1,1.3-0.2,2c0,0.3-0.1,0.6-0.1,0.9c-0.1,1-0.1,2-0.1,3C1.2,90.3,26.9,115.9,58.5,115.9z"/>
		<path class="st0" d="M88.1,58.8c2.1-0.7,3.8-1.9,4.9-3.4c1.1-1.6,1.7-3.4,1.7-5.7c0-2.3-0.9-4.1-2.8-5.1c-1.8-1.1-4.5-1.6-7.9-1.6
			H67.9l-3.4,17h16.2C83.5,59.9,86,59.5,88.1,58.8z"/>
		<path class="st0" d="M88.7,83.9c2.6-1.8,4-4.3,4-7.7c0-2.8-1-4.7-2.9-5.8c-1.9-1.1-4.7-1.6-8.2-1.6H62.7l-3.5,17.8h18.5
			C82.4,86.6,86.1,85.7,88.7,83.9z"/>
	</g>
</g>
</svg>
