<?xml version="1.0" encoding="utf-8"?>
<!-- Generator: Adobe Illustrator 26.0.0, SVG Export Plug-In . SVG Version: 6.00 Build 0)  -->
<svg version="1.1" id="Layer_1" xmlns="http://www.w3.org/2000/svg" xmlns:xlink="http://www.w3.org/1999/xlink" x="0px" y="0px"
	 viewBox="0 0 512 512" style="enable-background:new 0 0 512 512;" xml:space="preserve">
<style type="text/css">
	.st0{fill:#FFFFFF;}
	.st1{fill:#674EA7;}
</style>
<g>
	<path class="st0" d="M16.53,240.01c0.19-2.83,0.37-5.65,0.66-8.45C16.9,234.36,16.72,237.19,16.53,240.01z"/>
	<path class="st0" d="M148.83,40.84c2.73-1.38,5.49-2.7,8.28-3.98C154.32,38.14,151.56,39.46,148.83,40.84z"/>
	<path class="st0" d="M160.9,35.15c3.02-1.32,6.08-2.56,9.16-3.76C166.98,32.58,163.92,33.83,160.9,35.15z"/>
	<path class="st0" d="M84.07,88.49c1.55-1.6,3.12-3.18,4.71-4.74C87.19,85.3,85.62,86.89,84.07,88.49z"/>
	<path class="st0" d="M173.15,30.17c8.28-3.09,16.78-5.73,25.46-7.9C189.92,24.44,181.43,27.08,173.15,30.17z"/>
	<path class="st0" d="M76.08,97.14c1.47-1.67,2.95-3.33,4.47-4.96C79.04,93.81,77.55,95.47,76.08,97.14z"/>
	<path class="st0" d="M61.4,115.57c1.3-1.81,2.61-3.61,3.96-5.37C64.01,111.97,62.7,113.76,61.4,115.57z"/>
	<path class="st0" d="M68.52,106.17c1.39-1.74,2.78-3.47,4.22-5.17C71.31,102.7,69.91,104.43,68.52,106.17z"/>
	<path class="st0" d="M257.52,15c-4.64,0-9.23,0.16-13.8,0.42C248.28,15.16,252.88,15,257.52,15
		c133.44,0,241.62,108.18,241.62,241.62S390.96,498.25,257.52,498.25c-133.44,0-241.62-108.18-241.62-241.62
		c0-4.23,0.11-8.44,0.33-12.62c-0.21,4.18-0.33,8.39-0.33,12.62c0,133.44,108.18,241.62,241.62,241.62s241.62-108.18,241.62-241.62
		S390.96,15,257.52,15z"/>
	<path class="st1" d="M226.97,300.2l-22.42,112.12H334.8c22.76,0,42.74-3.03,59.93-9.09c17.19-6.06,30.68-15.15,40.45-27.28
		c9.77-12.12,14.66-27.21,14.66-45.28c0-18.8-6.07-33.09-18.19-42.86c-5.09-4.1-10.87-7.29-17.26-9.67c0.74-0.3,1.49-0.59,2.23-0.91
		c12.99-5.69,23.62-14.1,31.92-25.24c8.29-11.13,12.43-24.87,12.43-41.19c0-19.05-7.3-33.52-21.9-43.42
		c-14.6-9.89-35.51-14.84-62.72-14.84H256.5l-21.37,106.84H103.21l43.49-217.44c-20.7,10.71-39.64,24.3-56.3,40.28L46.8,300.2
		H226.97z M296.95,190.39h68.66c14.35,0,25.42,2.29,33.22,6.87c7.79,4.58,11.69,11.82,11.69,21.71c0,9.41-2.41,17.38-7.24,23.94
		c-4.82,6.56-11.75,11.38-20.78,14.47c-9.03,3.1-19.48,4.64-31.36,4.64h-68.48L296.95,190.39z M275.17,299.5h79.67
		c14.84,0,26.35,2.29,34.51,6.87c8.17,4.58,12.25,12.68,12.25,24.31c0,14.35-5.57,25.24-16.7,32.66
		c-11.13,7.42-26.72,11.13-46.76,11.13h-77.93L275.17,299.5z"/>
	<path class="st0" d="M216.38,18.56c2.92-0.5,5.85-0.95,8.8-1.34C222.23,17.61,219.3,18.06,216.38,18.56z"/>
	<path class="st0" d="M202.43,21.38c3.06-0.71,6.14-1.39,9.25-1.98C208.58,19.99,205.5,20.67,202.43,21.38z"/>
	<path class="st0" d="M230.03,16.6c3.11-0.35,6.25-0.62,9.4-0.86C236.28,15.98,233.14,16.25,230.03,16.6z"/>
	<path class="st0" d="M37.63,156.5c0.93-2.03,1.85-4.07,2.83-6.07C39.48,152.43,38.55,154.47,37.63,156.5z"/>
	<path class="st0" d="M25.18,190.33c0.63-2.2,1.24-4.4,1.92-6.57C26.41,185.93,25.8,188.13,25.18,190.33z"/>
	<path class="st0" d="M32.93,167.51c0.83-2.09,1.65-4.19,2.54-6.25C34.59,163.32,33.76,165.42,32.93,167.51z"/>
	<path class="st0" d="M28.78,178.78c0.73-2.14,1.45-4.29,2.23-6.41C30.23,174.49,29.51,176.64,28.78,178.78z"/>
	<path class="st0" d="M54.73,125.32c1.21-1.87,2.43-3.73,3.69-5.57C57.16,121.59,55.94,123.45,54.73,125.32z"/>
	<path class="st0" d="M22.13,202.18c0.52-2.27,1.03-4.55,1.61-6.8C23.16,197.62,22.65,199.9,22.13,202.18z"/>
	<path class="st0" d="M19.66,214.32c0.42-2.37,0.81-4.74,1.3-7.09C20.48,209.57,20.08,211.95,19.66,214.32z"/>
	<path class="st0" d="M48.54,135.39c1.12-1.92,2.24-3.84,3.41-5.73C50.78,131.55,49.66,133.47,48.54,135.39z"/>
	<path class="st0" d="M17.79,226.81c0.31-2.51,0.6-5.03,0.98-7.52C18.39,221.78,18.1,224.3,17.79,226.81z"/>
	<path class="st0" d="M42.84,145.79c1.02-1.98,2.04-3.95,3.12-5.9C44.88,141.83,43.86,143.81,42.84,145.79z"/>
	<path class="st0" d="M257.52,498.25c133.44,0,241.62-108.18,241.62-241.62S390.96,15,257.52,15c-4.64,0-9.23,0.16-13.8,0.42
		c-1.44,0.08-2.85,0.22-4.28,0.33c-3.15,0.23-6.29,0.5-9.4,0.86c-1.62,0.18-3.23,0.4-4.85,0.62c-2.95,0.4-5.89,0.84-8.8,1.34
		c-1.57,0.27-3.14,0.54-4.7,0.84c-3.11,0.6-6.18,1.27-9.25,1.98c-1.28,0.3-2.56,0.57-3.83,0.88c-8.68,2.18-17.18,4.82-25.46,7.9
		c-1.04,0.39-2.06,0.82-3.09,1.22c-3.08,1.2-6.14,2.44-9.16,3.76c-1.27,0.56-2.53,1.14-3.79,1.71c-2.79,1.28-5.55,2.6-8.28,3.98
		c-0.7,0.35-1.43,0.66-2.12,1.02l-0.01,0.07l-43.49,217.44h131.93l21.37-106.84h119.87c27.21,0,48.12,4.95,62.72,14.84
		c14.59,9.9,21.9,24.37,21.9,43.42c0,16.33-4.15,30.06-12.43,41.19c-8.29,11.13-18.93,19.55-31.92,25.24
		c-0.74,0.32-1.49,0.6-2.23,0.91c6.39,2.38,12.17,5.57,17.26,9.67c12.12,9.78,18.19,24.06,18.19,42.86
		c0,18.06-4.89,33.16-14.66,45.28c-9.78,12.13-23.26,21.22-40.45,27.28c-17.2,6.06-37.17,9.09-59.93,9.09H204.54l22.42-112.12H46.8
		l43.6-217.99l0.02-0.11c-0.56,0.53-1.08,1.1-1.63,1.64c-1.59,1.56-3.16,3.14-4.71,4.74c-1.18,1.22-2.36,2.45-3.52,3.69
		c-1.52,1.63-3,3.29-4.47,4.96c-1.12,1.28-2.25,2.56-3.34,3.86c-1.43,1.7-2.83,3.43-4.22,5.17c-1.06,1.34-2.13,2.67-3.17,4.03
		c-1.35,1.77-2.66,3.57-3.96,5.37c-1,1.39-2,2.77-2.97,4.18c-1.26,1.83-2.48,3.7-3.69,5.57c-0.94,1.44-1.88,2.88-2.78,4.34
		c-1.17,1.89-2.29,3.81-3.41,5.73c-0.87,1.5-1.75,2.98-2.59,4.5c-1.07,1.94-2.1,3.92-3.12,5.9c-0.8,1.54-1.61,3.08-2.38,4.64
		c-0.98,2-1.9,4.04-2.83,6.07c-0.72,1.58-1.46,3.16-2.15,4.76c-0.89,2.06-1.71,4.16-2.54,6.25c-0.64,1.62-1.31,3.23-1.92,4.86
		c-0.79,2.11-1.5,4.26-2.23,6.41c-0.56,1.66-1.15,3.3-1.68,4.98c-0.69,2.17-1.3,4.37-1.92,6.57c-0.48,1.68-0.99,3.35-1.43,5.05
		c-0.59,2.25-1.09,4.53-1.61,6.8c-0.39,1.69-0.81,3.36-1.17,5.05c-0.49,2.34-0.88,4.72-1.3,7.09c-0.29,1.66-0.63,3.31-0.89,4.98
		c-0.39,2.49-0.67,5.01-0.98,7.52c-0.2,1.58-0.44,3.15-0.6,4.75c-0.29,2.8-0.47,5.63-0.66,8.45c-0.09,1.33-0.23,2.65-0.3,3.99
		c-0.21,4.18-0.33,8.39-0.33,12.62C15.89,390.07,124.07,498.25,257.52,498.25z"/>
	<path class="st0" d="M382.49,257.38c9.03-3.09,15.96-7.92,20.78-14.47c4.83-6.55,7.24-14.53,7.24-23.94
		c0-9.89-3.9-17.13-11.69-21.71c-7.79-4.58-18.87-6.87-33.22-6.87h-68.66l-14.3,71.63h68.48
		C363.01,262.01,373.46,260.47,382.49,257.38z"/>
	<path class="st0" d="M384.91,363.33c11.13-7.42,16.7-18.31,16.7-32.66c0-11.63-4.08-19.73-12.25-24.31
		c-8.16-4.57-19.67-6.87-34.51-6.87h-79.67l-14.96,74.96h77.93C358.18,374.46,373.77,370.75,384.91,363.33z"/>
</g>
</svg>
